<?xml version="1.0" encoding="UTF-8" standalone="no"?>
<!DOCTYPE svg PUBLIC "-//W3C//DTD SVG 1.1//EN" "http://www.w3.org/Graphics/SVG/1.1/DTD/svg11.dtd">
<svg width="100%" height="100%" viewBox="0 0 155 119" version="1.1" xmlns="http://www.w3.org/2000/svg" xmlns:xlink="http://www.w3.org/1999/xlink" xml:space="preserve" xmlns:serif="http://www.serif.com/" style="fill-rule:evenodd;clip-rule:evenodd;stroke-linejoin:round;stroke-miterlimit:2;">
    <g id="Lux-Health" serif:id="Lux Health">
        <path d="M50.376,8.603L119.233,77.132L77.503,118.663L8.64,50.134C3.108,44.626 0,37.157 0,29.369C0,21.581 3.108,14.111 8.64,8.603C14.175,3.096 21.681,0.002 29.508,0.002C37.335,0.002 44.841,3.096 50.376,8.603Z" style="fill:rgb(46,185,255);fill-rule:nonzero;"/>
        <path d="M146.356,50.134L77.498,118.662L35.767,77.131L104.625,8.603C107.365,5.875 110.618,3.712 114.198,2.236C117.778,0.76 121.615,0 125.49,0C129.366,0 133.203,0.76 136.783,2.236C140.363,3.712 143.616,5.875 146.356,8.603C149.096,11.329 151.27,14.567 152.753,18.13C154.236,21.693 155,25.512 155,29.368C155,33.225 154.236,37.044 152.753,40.607C151.27,44.17 149.096,47.407 146.356,50.134Z" style="fill:white;fill-rule:nonzero;"/>
        <path d="M60.142,87.53L65.052,82.644L67.42,85.005L59.527,92.86L43.718,77.126L46.701,74.153L60.142,87.53Z" style="fill:rgb(3,171,255);fill-rule:nonzero;"/>
        <path d="M68.039,60.833L79.876,72.613L76.869,75.606L75.375,74.119C75.5,75.029 75.397,75.955 75.077,76.816C74.74,77.737 74.2,78.572 73.496,79.259C72.66,80.128 71.613,80.768 70.456,81.118C69.34,81.434 68.155,81.414 67.05,81.061C65.782,80.643 64.637,79.921 63.716,78.957L56.774,72.044L59.762,69.075L66.276,75.558C67.013,76.395 68.045,76.917 69.159,77.016C69.662,77.025 70.162,76.926 70.625,76.726C71.087,76.527 71.501,76.231 71.839,75.859C72.218,75.522 72.519,75.107 72.723,74.644C72.927,74.18 73.029,73.679 73.021,73.173C72.924,72.064 72.398,71.036 71.556,70.304L65.042,63.817L68.039,60.833Z" style="fill:rgb(3,171,255);fill-rule:nonzero;"/>
        <path d="M89.349,63.181L83.239,61.947L84.761,67.746L81.562,70.935L79.482,61.178L69.682,59.198L73.054,55.842L79.117,57.08L77.642,51.276L80.841,48.092L82.854,57.826L92.716,59.829L89.349,63.181Z" style="fill:rgb(3,171,255);fill-rule:nonzero;"/>
        <path d="M73.953,82.629L89.661,98.262L86.673,101.236L80.371,94.964L73.991,101.313L80.294,107.585L77.306,110.559L61.602,94.925L64.59,91.952L71.57,98.903L77.949,92.554L70.97,85.603L73.953,82.629Z" style="fill:rgb(3,171,255);fill-rule:nonzero;"/>
        <path d="M92.265,81.792C91.922,81.439 91.504,81.166 91.042,80.994C90.58,80.821 90.086,80.752 89.594,80.793C88.576,80.883 87.626,81.341 86.923,82.079C86.217,82.74 85.788,83.641 85.722,84.603C85.682,85.609 86.012,86.595 86.649,87.376L92.265,81.792ZM97.265,80.784L88.619,89.389C89.402,90.109 90.434,90.501 91.501,90.484C92.513,90.436 93.469,90.001 94.167,89.269C94.691,88.811 95.063,88.205 95.234,87.532C95.406,86.858 95.369,86.149 95.128,85.497L98.346,82.29C99.134,83.735 99.425,85.397 99.177,87.022C98.891,88.796 98.023,90.425 96.708,91.655C95.656,92.736 94.34,93.527 92.889,93.95C91.503,94.359 90.028,94.359 88.643,93.95C87.145,93.491 85.789,92.66 84.703,91.536C83.564,90.451 82.718,89.098 82.244,87.601C81.824,86.236 81.814,84.779 82.215,83.408C82.653,81.953 83.463,80.635 84.564,79.584C85.754,78.347 87.288,77.491 88.969,77.126C89.724,76.967 90.5,76.936 91.265,77.035C93.152,77.302 94.893,78.197 96.204,79.574C96.591,79.952 96.946,80.361 97.265,80.798" style="fill:rgb(3,171,255);fill-rule:nonzero;"/>
        <path d="M104.486,68.114C103.723,67.886 102.911,67.875 102.142,68.081C101.395,68.278 100.715,68.671 100.172,69.219C99.631,69.745 99.239,70.405 99.038,71.131C98.838,71.888 98.851,72.686 99.077,73.436C99.336,74.3 99.818,75.081 100.475,75.702C101.106,76.358 101.894,76.843 102.766,77.112C103.536,77.349 104.356,77.374 105.139,77.184C105.878,77.001 106.553,76.621 107.09,76.084C107.64,75.544 108.035,74.867 108.233,74.124C108.442,73.36 108.431,72.553 108.199,71.796C107.92,70.928 107.424,70.145 106.758,69.52C106.131,68.858 105.346,68.365 104.476,68.086L104.486,68.114ZM94.965,74.87C94.526,73.565 94.463,72.164 94.782,70.825C95.113,69.507 95.805,68.305 96.781,67.354C97.569,66.538 98.547,65.929 99.629,65.581C100.573,65.28 101.573,65.193 102.555,65.327L100.878,63.659L103.885,60.666L115.655,72.384L112.648,75.376L110.928,73.665C111.093,74.65 111.017,75.66 110.707,76.61C110.36,77.701 109.742,78.688 108.91,79.479C107.959,80.444 106.751,81.119 105.427,81.424C104.068,81.733 102.65,81.66 101.33,81.214C99.848,80.715 98.509,79.869 97.424,78.747C96.307,77.677 95.466,76.353 94.974,74.889" style="fill:rgb(3,171,255);fill-rule:nonzero;"/>
        <path d="M104.19,52.536L101.205,55.508L116.911,71.14L119.897,68.168L104.19,52.536Z" style="fill:rgb(3,171,255);fill-rule:nonzero;"/>
        <path d="M114.799,54.695L120.487,60.36C120.629,60.528 120.804,60.666 121.002,60.764C121.199,60.862 121.415,60.918 121.635,60.929C122.119,60.849 122.559,60.6 122.875,60.226L124.258,58.844L126.766,61.335L124.888,63.204C122.37,65.71 119.895,65.751 117.461,63.329L105.403,51.348L108.411,48.35L112.359,52.28L115.006,49.651L117.446,52.079L114.799,54.695Z" style="fill:rgb(3,171,255);fill-rule:nonzero;"/>
        <path d="M125.676,39.846C126.78,39.537 127.952,39.567 129.038,39.932C130.3,40.366 131.437,41.097 132.353,42.064L139.251,48.929L136.268,51.898L129.735,45.434C129.005,44.606 127.98,44.091 126.877,44C126.374,43.993 125.877,44.093 125.416,44.292C124.956,44.492 124.543,44.787 124.206,45.157C123.826,45.497 123.524,45.913 123.317,46.378C123.11,46.843 123.003,47.345 123.005,47.853C123.091,48.96 123.608,49.989 124.446,50.722L130.941,57.186L127.953,60.159L112.249,44.526L115.232,41.552L120.646,46.94C120.524,46.02 120.64,45.084 120.982,44.22C121.357,43.255 121.937,42.383 122.683,41.662C123.5,40.816 124.525,40.196 125.656,39.865" style="fill:rgb(3,171,255);fill-rule:nonzero;"/>
    </g>
</svg>
