<?xml version="1.0" encoding="UTF-8" standalone="no"?>
<!DOCTYPE svg PUBLIC "-//W3C//DTD SVG 1.1//EN" "http://www.w3.org/Graphics/SVG/1.1/DTD/svg11.dtd">
<svg width="100%" height="100%" viewBox="0 0 120 40" version="1.1" xmlns="http://www.w3.org/2000/svg" xmlns:xlink="http://www.w3.org/1999/xlink" xml:space="preserve" xmlns:serif="http://www.serif.com/" style="fill-rule:evenodd;clip-rule:evenodd;stroke-linejoin:round;stroke-miterlimit:2;">
    <g id="Phone">
        <g>
            <path d="M110.135,0L9.535,0C9.168,0 8.806,0 8.44,0.002C8.134,0.004 7.83,0.01 7.521,0.015C6.85,0.023 6.18,0.082 5.517,0.191C4.856,0.304 4.215,0.515 3.616,0.818C3.019,1.124 2.472,1.522 1.998,1.997C1.52,2.471 1.122,3.018 0.819,3.618C0.515,4.217 0.305,4.859 0.194,5.521C0.083,6.183 0.023,6.853 0.015,7.523C0.006,7.83 0.005,8.138 0,8.444L0,31.559C0.005,31.869 0.006,32.17 0.015,32.481C0.023,33.151 0.083,33.821 0.194,34.482C0.304,35.145 0.515,35.788 0.819,36.387C1.122,36.985 1.52,37.53 1.998,38.001C2.471,38.478 3.017,38.876 3.616,39.18C4.215,39.484 4.855,39.697 5.517,39.81C6.18,39.919 6.85,39.978 7.521,39.987C7.83,39.994 8.134,39.998 8.44,39.998C8.806,40 9.168,40 9.535,40L110.135,40C110.494,40 110.859,40 111.219,39.998C111.523,39.998 111.836,39.994 112.141,39.987C112.811,39.979 113.479,39.92 114.141,39.81C114.804,39.696 115.448,39.483 116.049,39.18C116.647,38.876 117.194,38.478 117.666,38.001C118.142,37.528 118.541,36.983 118.848,36.387C119.15,35.787 119.358,35.145 119.467,34.482C119.578,33.821 119.64,33.151 119.652,32.481C119.656,32.17 119.656,31.869 119.656,31.559C119.664,31.195 119.664,30.834 119.664,30.465L119.664,9.536C119.664,9.17 119.664,8.807 119.656,8.444C119.656,8.138 119.656,7.83 119.652,7.523C119.64,6.852 119.578,6.183 119.467,5.521C119.358,4.859 119.149,4.217 118.848,3.618C118.23,2.415 117.251,1.436 116.049,0.818C115.448,0.516 114.804,0.304 114.141,0.191C113.48,0.081 112.811,0.022 112.141,0.015C111.836,0.01 111.523,0.004 111.219,0.002C110.859,0 110.494,0 110.135,0L110.135,0Z" style="fill-rule:nonzero;"/>
            <path d="M8.445,39.125C8.14,39.125 7.843,39.121 7.541,39.114C6.914,39.106 6.29,39.052 5.671,38.951C5.095,38.852 4.537,38.667 4.015,38.403C3.498,38.142 3.026,37.798 2.618,37.387C2.204,36.98 1.859,36.508 1.597,35.99C1.333,35.469 1.149,34.91 1.054,34.333C0.951,33.713 0.896,33.086 0.888,32.458C0.881,32.247 0.873,31.545 0.873,31.545L0.873,8.444C0.873,8.444 0.882,7.753 0.888,7.55C0.895,6.922 0.951,6.297 1.053,5.678C1.149,5.099 1.332,4.539 1.597,4.016C1.857,3.498 2.2,3.026 2.612,2.618C3.023,2.206 3.496,1.861 4.014,1.595C4.535,1.332 5.092,1.149 5.667,1.051C6.288,0.95 6.915,0.895 7.543,0.887L8.445,0.875L111.214,0.875L112.127,0.888C112.75,0.895 113.371,0.949 113.985,1.05C114.566,1.149 115.13,1.334 115.656,1.598C116.694,2.133 117.539,2.979 118.071,4.018C118.332,4.538 118.512,5.094 118.606,5.667C118.71,6.291 118.768,6.922 118.78,7.554C118.783,7.837 118.783,8.142 118.783,8.444C118.791,8.819 118.791,9.176 118.791,9.536L118.791,30.465C118.791,30.828 118.791,31.183 118.783,31.54C118.783,31.865 118.783,32.163 118.779,32.47C118.768,33.091 118.71,33.71 118.608,34.323C118.515,34.904 118.333,35.468 118.068,35.993C117.805,36.506 117.462,36.973 117.053,37.379C116.644,37.793 116.172,38.138 115.653,38.401C115.128,38.667 114.566,38.853 113.985,38.951C113.367,39.052 112.742,39.107 112.116,39.114C111.823,39.121 111.517,39.125 111.219,39.125L110.135,39.127L8.445,39.125Z" style="fill:white;fill-rule:nonzero;"/>
        </g>
        <g transform="matrix(0.0428995,0,0,0.0430519,7.40302,8.54825)">
            <path d="M370.43,192.25C359.05,172.333 337.799,160 314.86,160L197.14,160C174.201,160 152.95,172.333 141.57,192.25L36.22,376.62C33.455,381.455 32.001,386.93 32,392.5L32,448C32,465.555 46.445,480 64,480L448,480C465.555,480 480,465.555 480,448L480,392.5C479.999,386.93 478.545,381.455 475.78,376.62L370.43,192.25ZM256,384C216.502,384 184,351.498 184,312C184,272.502 216.502,240 256,240C295.498,240 328,272.502 328,312C328,351.498 295.498,384 256,384ZM506.18,123C436.76,65 347.38,32 256,32C164.62,32 75.24,65 5.82,123C2.108,126.143 -0.025,130.776 0,135.64L0,192C0,200.777 7.223,208 16,208L86.11,208C92.162,207.999 97.716,204.564 100.42,199.15L128,128C167.9,110.72 211.2,104 256,104C300.77,104 344.07,110.72 384,128L411.58,199.15C414.284,204.564 419.838,207.999 425.89,208L496,208C504.777,208 512,200.777 512,192L512,135.64C512.025,130.776 509.892,126.143 506.18,123Z" style="fill-rule:nonzero;"/>
        </g>
        <g transform="matrix(1,0,0,1.307,0,-10.1714)">
            <text x="34.445px" y="30.606px" style="font-family:'Arial-BoldMT', 'Arial', sans-serif;font-weight:700;font-size:12px;">(</text>
            <text x="38.441px" y="31.753px" style="font-family:'Arial-BoldMT', 'Arial', sans-serif;font-weight:700;font-size:12px;">650</text>
            <text x="58.463px" y="30.606px" style="font-family:'Arial-BoldMT', 'Arial', sans-serif;font-weight:700;font-size:12px;">)</text>
            <text x="62.459px" y="31.753px" style="font-family:'Arial-BoldMT', 'Arial', sans-serif;font-weight:700;font-size:12px;">300-2348</text>
        </g>
        <text x="35.58px" y="14.647px" style="font-family:'ArialMT', 'Arial', sans-serif;font-size:8.249px;">S<tspan x="41.453px 45.949px 50.908px 55.867px 60.826px 65.785px 67.989px 72.948px 75.611px 80.571px 85.066px 87.73px 92.689px 97.648px 102.607px 107.566px " y="14.647px 14.647px 14.647px 14.647px 14.647px 14.647px 14.647px 14.647px 14.647px 14.647px 14.647px 14.647px 14.647px 14.647px 14.647px 14.647px ">chedule by phone</tspan></text>
    </g>
</svg>
